# File created by Blade
# Date/Time:  Thu Jan 22 18:25:10 2015
# Frame Rate: 120.000 fps
#------------------------------------------------------
:FULLY-SPECIFIED
:DEGREES
2221
root -3.137403 33.098174 -0.066465 8.265494 -3.864663 2.623300
RightUpLeg -1.216584 -4.515958 -1.688697
RightLeg -0.850882 -0.000000 0.000000
RightFoot -11.585062 -2.429847 2.587010
RightToeBase 5.785195 -0.000000 -0.000000
LeftUpLeg -1.605912 4.084708 0.883449
LeftLeg 2.432264 -0.000000 -0.000000
LeftFoot -12.053142 3.444147 -10.225203
LeftToeBase 8.746390 -0.000000 -0.000000
Spine -13.093442 12.039997 -2.024844
RightShoulder 14.345643 51.844155 -38.642889
RightArm 83.576330 -41.854547 80.300161
RightForeArm 3.402584 -0.000000 101.485039
RightHand 13.575051 -0.000000 20.775980
RightHandThumb1 -24.326973 -0.000000 -32.862282
LeftShoulder -3.277261 -13.549110 15.616546
LeftArm 20.615275 30.852186 -92.300577
LeftForeArm -51.309809 0.000000 117.426757
LeftHand 7.548375 -0.000000 -34.111922
LeftHandThumb1 -26.253704 0.000000 33.147579
Head 1.098404 -7.480983 -2.330840
2222
root -3.136623 33.097881 -0.069216 8.275514 -3.868045 2.624748
RightUpLeg -1.239465 -4.506285 -1.690351
RightLeg -0.837230 -0.000000 0.000000
RightFoot -11.599936 -2.436214 2.574946
RightToeBase 5.817103 -0.000000 -0.000000
LeftUpLeg -1.623586 4.089499 0.877750
LeftLeg 2.438893 -0.000000 -0.000000
LeftFoot -12.047816 3.425727 -10.298779
LeftToeBase 8.654754 -0.000000 -0.000000
Spine -13.080903 12.013159 -2.025919
RightShoulder 14.344301 51.661116 -38.583323
RightArm 83.836827 -41.845479 80.076994
RightForeArm 3.396534 -0.000000 101.420862
RightHand 13.601023 -0.000000 20.719242
RightHandThumb1 -24.326973 -0.000000 -32.862282
LeftShoulder -3.269231 -13.526622 15.626862
LeftArm 20.618979 30.863496 -92.301562
LeftForeArm -51.294570 -0.000000 117.419624
LeftHand 7.484425 -0.000000 -34.139723
LeftHandThumb1 -26.253704 0.000000 33.147579
Head 1.010059 -7.469599 -2.317650
2223
root -3.137091 33.098014 -0.070306 8.277375 -3.865839 2.625682
RightUpLeg -1.242174 -4.512346 -1.689513
RightLeg -0.837717 -0.000000 0.000000
RightFoot -11.591761 -2.433540 2.588451
RightToeBase 5.761692 -0.000000 -0.000000
LeftUpLeg -1.627182 4.097761 0.878404
LeftLeg 2.436653 -0.000000 -0.000000
LeftFoot -12.040693 3.416995 -10.298855
LeftToeBase 8.636287 -0.000000 -0.000000
Spine -13.069582 11.997245 -2.034515
RightShoulder 14.332782 51.621053 -38.559033
RightArm 83.859128 -41.863199 80.039665
RightForeArm 3.328591 -0.000000 101.425948
RightHand 13.567659 -0.000000 20.730837
RightHandThumb1 -24.326973 -0.000000 -32.862282
LeftShoulder -3.241659 -13.534447 15.630657
LeftArm 20.596382 30.881038 -92.306995
LeftForeArm -51.315791 -0.000000 117.398227
LeftHand 7.458665 -0.000000 -34.173979
LeftHandThumb1 -26.253704 0.000000 33.147579
Head 0.960669 -7.476927 -2.292749
2224
root -3.136587 33.098129 -0.072111 8.279637 -3.872642 2.628002
RightUpLeg -1.253018 -4.502509 -1.692342
RightLeg -0.828914 -0.000000 0.000000
RightFoot -11.595205 -2.438523 2.584822
RightToeBase 5.793924 -0.000000 -0.000000
LeftUpLeg -1.630670 4.092166 0.875497
LeftLeg 2.434610 -0.000000 -0.000000
LeftFoot -12.033628 3.418453 -10.307795
LeftToeBase 8.638074 -0.000000 -0.000000
Spine -13.056941 11.990936 -2.039653
RightShoulder 14.289779 51.537838 -38.571548
RightArm 83.913520 -41.883959 79.985907
RightForeArm 3.333620 -0.000000 101.415334
RightHand 13.619235 -0.000000 20.748515
RightHandThumb1 -24.326973 -0.000000 -32.862282
LeftShoulder -3.220437 -13.518860 15.620269
LeftArm 20.605445 30.898286 -92.292777
LeftForeArm -51.322623 -0.000000 117.382577
LeftHand 7.409208 -0.000000 -34.174361
LeftHandThumb1 -26.253704 0.000000 33.147579
Head 0.921945 -7.494332 -2.283368
2225
root -3.136665 33.098240 -0.074509 8.287865 -3.869573 2.624913
RightUpLeg -1.264029 -4.527468 -1.687114
RightLeg -0.832637 -0.000000 0.000000
RightFoot -11.584527 -2.417496 2.599928
RightToeBase 5.760374 -0.000000 -0.000000
LeftUpLeg -1.644125 4.098405 0.876745
LeftLeg 2.434930 -0.000000 -0.000000
LeftFoot -12.036508 3.422024 -10.302707
LeftToeBase 8.671334 -0.000000 -0.000000
Spine -13.055013 11.996994 -2.053771
RightShoulder 14.262494 51.530099 -38.570172
RightArm 83.853738 -41.889103 80.015474
RightForeArm 3.329544 0.000000 101.424174
RightHand 13.596789 -0.000000 20.638446
RightHandThumb1 -24.326973 -0.000000 -32.862282
LeftShoulder -3.173692 -13.542235 15.623101
LeftArm 20.577535 30.931999 -92.318928
LeftForeArm -51.286773 -0.000000 117.348930
LeftHand 7.446276 -0.000000 -34.185202
LeftHandThumb1 -26.253704 0.000000 33.147579
Head 0.908876 -7.533774 -2.249739
2226
root -3.136557 33.098514 -0.076561 8.291868 -3.879225 2.623699
RightUpLeg -1.274996 -4.501363 -1.686696
RightLeg -0.828597 -0.000000 0.000000
RightFoot -11.585075 -2.432628 2.605699
RightToeBase 5.771097 -0.000000 -0.000000
LeftUpLeg -1.652503 4.117025 0.876527
LeftLeg 2.439879 -0.000000 -0.000000
LeftFoot -12.033320 3.417512 -10.277645
LeftToeBase 8.651307 -0.000000 -0.000000
Spine -13.053143 11.986157 -2.063290
RightShoulder 14.268634 51.454759 -38.538435
RightArm 83.921058 -41.884429 79.928227
RightForeArm 3.280585 0.000000 101.416069
RightHand 13.641500 -0.000000 20.548988
RightHandThumb1 -24.326973 -0.000000 -32.862282
LeftShoulder -3.147162 -13.533830 15.623763
LeftArm 20.566273 30.944393 -92.328598
LeftForeArm -51.293902 -0.000000 117.327293
LeftHand 7.397634 -0.000000 -34.234126
LeftHandThumb1 -26.253704 0.000000 33.147579
Head 0.922104 -7.558000 -2.222831
2227
root -3.136603 33.098270 -0.077763 8.291949 -3.883782 2.621498
RightUpLeg -1.277805 -4.517500 -1.681786
RightLeg -0.830586 -0.000000 0.000000
RightFoot -11.578772 -2.430435 2.582746
RightToeBase 5.750558 -0.000000 -0.000000
LeftUpLeg -1.652354 4.123261 0.879459
LeftLeg 2.440184 -0.000000 -0.000000
LeftFoot -12.040860 3.403660 -10.295828
LeftToeBase 8.683903 -0.000000 -0.000000
Spine -13.047825 11.981011 -2.071926
RightShoulder 14.252567 51.433679 -38.529321
RightArm 83.885488 -41.898232 79.932454
RightForeArm 3.267222 -0.000000 101.429198
RightHand 13.672907 -0.000000 20.513646
RightHandThumb1 -24.326973 -0.000000 -32.862282
LeftShoulder -3.124164 -13.512695 15.622659
LeftArm 20.582185 30.963870 -92.331281
LeftForeArm -51.257818 0.000000 117.309825
LeftHand 7.387054 -0.000000 -34.232482
LeftHandThumb1 -26.253704 0.000000 33.147579
Head 0.952554 -7.579882 -2.199519
2228
root -3.136491 33.098569 -0.079503 8.293505 -3.895820 2.618243
RightUpLeg -1.281871 -4.504575 -1.680210
RightLeg -0.835227 -0.000000 0.000000
RightFoot -11.575627 -2.426664 2.565057
RightToeBase 5.766112 -0.000000 -0.000000
LeftUpLeg -1.653486 4.131227 0.882292
LeftLeg 2.434846 -0.000000 -0.000000
LeftFoot -12.037038 3.402178 -10.288918
LeftToeBase 8.674472 -0.000000 -0.000000
Spine -13.043911 11.973772 -2.076178
RightShoulder 14.234411 51.435466 -38.526719
RightArm 83.841620 -41.911932 79.945014
RightForeArm 3.274218 -0.000000 101.452189
RightHand 13.666628 -0.000000 20.472457
RightHandThumb1 -24.326973 -0.000000 -32.862282
LeftShoulder -3.096119 -13.512417 15.612874
LeftArm 20.567401 30.981547 -92.349967
LeftForeArm -51.197156 -0.000000 117.301930
LeftHand 7.412469 -0.000000 -34.221418
LeftHandThumb1 -26.253704 0.000000 33.147579
Head 0.995912 -7.612855 -2.182120
2229
root -3.136464 33.098984 -0.080949 8.296488 -3.908181 2.618446
RightUpLeg -1.286678 -4.486403 -1.682674
RightLeg -0.841016 -0.000000 0.000000
RightFoot -11.564565 -2.422809 2.598878
RightToeBase 5.759732 -0.000000 -0.000000
LeftUpLeg -1.653830 4.141307 0.878088
LeftLeg 2.427048 -0.000000 -0.000000
LeftFoot -12.026222 3.419337 -10.278035
LeftToeBase 8.654859 -0.000000 -0.000000
Spine -13.042356 11.971288 -2.088291
RightShoulder 14.196893 51.421766 -38.537551
RightArm 83.817270 -41.936419 79.954907
RightForeArm 3.260075 0.000000 101.474257
RightHand 13.627145 -0.000000 20.442484
RightHandThumb1 -24.326973 -0.000000 -32.862282
LeftShoulder -3.068075 -13.526217 15.608347
LeftArm 20.540070 30.988531 -92.375637
LeftForeArm -51.190146 -0.000000 117.293736
LeftHand 7.378142 -0.000000 -34.243282
LeftHandThumb1 -26.253704 0.000000 33.147579
Head 1.051375 -7.654287 -2.161176
2230
root -3.136669 33.098819 -0.083646 8.303713 -3.916120 2.621545
RightUpLeg -1.302493 -4.473366 -1.684641
RightLeg -0.835740 -0.000000 0.000000
RightFoot -11.579248 -2.446254 2.589946
RightToeBase 5.816472 -0.000000 -0.000000
LeftUpLeg -1.666948 4.148741 0.874268
LeftLeg 2.431133 -0.000000 -0.000000
LeftFoot -12.022819 3.412922 -10.289831
LeftToeBase 8.633240 -0.000000 -0.000000
Spine -13.043839 11.949437 -2.100110
RightShoulder 14.177967 51.365475 -38.525252
RightArm 83.885541 -41.939350 79.897445
RightForeArm 3.279836 -0.000000 101.462504
RightHand 13.660932 -0.000000 20.453830
RightHandThumb1 -24.326973 -0.000000 -32.862282
LeftShoulder -3.062285 -13.500914 15.606486
LeftArm 20.561807 30.998340 -92.377295
LeftForeArm -51.199993 -0.000000 117.278365
LeftHand 7.366310 -0.000000 -34.273912
LeftHandThumb1 -26.253704 0.000000 33.147579
Head 1.117497 -7.674087 -2.143552
